<mxfile host="app.diagrams.net" modified="2023-06-17T15:06:47.921Z" agent="Mozilla/5.0 (Windows NT 10.0; Win64; x64) AppleWebKit/537.36 (KHTML, like Gecko) Chrome/114.0.0.0 Safari/537.36" etag="c_MTwebix0URVF69VR_k" version="21.3.7" type="device">
  <diagram name="Page-1" id="jZBVtP8UfAgM57NbWzHE">
    <mxGraphModel dx="733" dy="403" grid="1" gridSize="10" guides="1" tooltips="1" connect="1" arrows="1" fold="1" page="1" pageScale="1" pageWidth="850" pageHeight="1100" math="0" shadow="0">
      <root>
        <mxCell id="0" />
        <mxCell id="1" parent="0" />
        <mxCell id="-ChIbXCmicpVbiaIvaEA-44" style="edgeStyle=orthogonalEdgeStyle;rounded=0;orthogonalLoop=1;jettySize=auto;html=1;entryX=1;entryY=0.25;entryDx=0;entryDy=0;" edge="1" parent="1" source="-ChIbXCmicpVbiaIvaEA-38" target="-ChIbXCmicpVbiaIvaEA-39">
          <mxGeometry relative="1" as="geometry">
            <Array as="points">
              <mxPoint x="425" y="355" />
            </Array>
          </mxGeometry>
        </mxCell>
        <mxCell id="-ChIbXCmicpVbiaIvaEA-52" style="edgeStyle=orthogonalEdgeStyle;rounded=0;orthogonalLoop=1;jettySize=auto;html=1;entryX=0.586;entryY=-0.064;entryDx=0;entryDy=0;entryPerimeter=0;" edge="1" parent="1" source="-ChIbXCmicpVbiaIvaEA-38" target="-ChIbXCmicpVbiaIvaEA-50">
          <mxGeometry relative="1" as="geometry" />
        </mxCell>
        <mxCell id="-ChIbXCmicpVbiaIvaEA-38" value="&lt;font style=&quot;font-size: 8px;&quot;&gt;Sistem Informasi Pengolahan Data Nilai Siswa&lt;/font&gt;" style="ellipse;whiteSpace=wrap;html=1;aspect=fixed;" vertex="1" parent="1">
          <mxGeometry x="385" y="380" width="80" height="80" as="geometry" />
        </mxCell>
        <mxCell id="-ChIbXCmicpVbiaIvaEA-46" style="edgeStyle=orthogonalEdgeStyle;rounded=0;orthogonalLoop=1;jettySize=auto;html=1;" edge="1" parent="1" source="-ChIbXCmicpVbiaIvaEA-39" target="-ChIbXCmicpVbiaIvaEA-38">
          <mxGeometry relative="1" as="geometry">
            <Array as="points">
              <mxPoint x="250" y="420" />
            </Array>
          </mxGeometry>
        </mxCell>
        <mxCell id="-ChIbXCmicpVbiaIvaEA-39" value="Siswa" style="rounded=0;whiteSpace=wrap;html=1;" vertex="1" parent="1">
          <mxGeometry x="190" y="340" width="120" height="60" as="geometry" />
        </mxCell>
        <mxCell id="-ChIbXCmicpVbiaIvaEA-47" value="&lt;font style=&quot;font-size: 8px;&quot;&gt;Data Akun&lt;/font&gt;" style="text;strokeColor=none;align=center;fillColor=none;html=1;verticalAlign=middle;whiteSpace=wrap;rounded=0;" vertex="1" parent="1">
          <mxGeometry x="340" y="330" width="60" height="30" as="geometry" />
        </mxCell>
        <mxCell id="-ChIbXCmicpVbiaIvaEA-48" value="&lt;span style=&quot;font-size: 8px;&quot;&gt;Data Raport&lt;/span&gt;" style="text;strokeColor=none;align=center;fillColor=none;html=1;verticalAlign=middle;whiteSpace=wrap;rounded=0;" vertex="1" parent="1">
          <mxGeometry x="340" y="320" width="60" height="30" as="geometry" />
        </mxCell>
        <mxCell id="-ChIbXCmicpVbiaIvaEA-49" value="&lt;span style=&quot;font-size: 8px;&quot;&gt;Login&lt;/span&gt;" style="text;strokeColor=none;align=center;fillColor=none;html=1;verticalAlign=middle;whiteSpace=wrap;rounded=0;" vertex="1" parent="1">
          <mxGeometry x="290" y="420" width="60" height="30" as="geometry" />
        </mxCell>
        <mxCell id="-ChIbXCmicpVbiaIvaEA-51" style="edgeStyle=orthogonalEdgeStyle;rounded=0;orthogonalLoop=1;jettySize=auto;html=1;entryX=0.438;entryY=1;entryDx=0;entryDy=0;entryPerimeter=0;" edge="1" parent="1" source="-ChIbXCmicpVbiaIvaEA-50" target="-ChIbXCmicpVbiaIvaEA-38">
          <mxGeometry relative="1" as="geometry" />
        </mxCell>
        <mxCell id="-ChIbXCmicpVbiaIvaEA-50" value="Guru" style="rounded=0;whiteSpace=wrap;html=1;" vertex="1" parent="1">
          <mxGeometry x="560" y="470" width="120" height="60" as="geometry" />
        </mxCell>
        <mxCell id="-ChIbXCmicpVbiaIvaEA-53" value="&lt;span style=&quot;font-size: 8px;&quot;&gt;Data Siswa&lt;/span&gt;" style="text;strokeColor=none;align=center;fillColor=none;html=1;verticalAlign=middle;whiteSpace=wrap;rounded=0;" vertex="1" parent="1">
          <mxGeometry x="500" y="390" width="60" height="30" as="geometry" />
        </mxCell>
        <mxCell id="-ChIbXCmicpVbiaIvaEA-54" value="&lt;span style=&quot;font-size: 8px;&quot;&gt;Data Pelajaran&lt;/span&gt;" style="text;strokeColor=none;align=center;fillColor=none;html=1;verticalAlign=middle;whiteSpace=wrap;rounded=0;" vertex="1" parent="1">
          <mxGeometry x="500" y="380" width="60" height="30" as="geometry" />
        </mxCell>
        <mxCell id="-ChIbXCmicpVbiaIvaEA-56" value="&lt;span style=&quot;font-size: 8px;&quot;&gt;Data Nilai&lt;/span&gt;" style="text;strokeColor=none;align=center;fillColor=none;html=1;verticalAlign=middle;whiteSpace=wrap;rounded=0;" vertex="1" parent="1">
          <mxGeometry x="450" y="500" width="60" height="30" as="geometry" />
        </mxCell>
      </root>
    </mxGraphModel>
  </diagram>
</mxfile>
